# xmcd
#
# Track frame offsets: 
#        150
#        15063
#        32183
#        45456
#        63547
#        79338
#        95065
#        110004
#        121122
#        140742
#        154623
#        171825
#        195956
#        214883
#
# Disc length: 3079 seconds
#
# Revision: 1
# Processed by: cddbd v1.5.2PL0 Copyright (c) Steve Scherf et al.
# Submitted via: ExactAudioCopy v0.99pb5
#
DISCID=b90c050e
DTITLE=Rosanne Cash - Interiors {Rem and Exp 2005}
DYEAR=1990
DGENRE=Country
TTITLE0=On The Inside
TTITLE1=Dance With The Tiger
TTITLE2=On The Surface
TTITLE3=Real Woman
TTITLE4=This World
TTITLE5=What We Really Want
TTITLE6=Mirror Image
TTITLE7=Land Of Nightmares
TTITLE8=I Want A Cure
TTITLE9=Paralyzed
TTITLE10=Portrait
TTITLE11=All Come True
TTITLE12=This World (Live)
TTITLE13=What We Really Want (Acoustic)
EXTD=
EXTT0=
EXTT1=
EXTT2=
EXTT3=
EXTT4=
EXTT5=
EXTT6=
EXTT7=
EXTT8=
EXTT9=
EXTT10=
EXTT11=
EXTT12=
EXTT13=
PLAYORDER=
